<?xml version="1.0" encoding="iso-8859-1"?>
<!-- Generator: Adobe Illustrator 19.0.0, SVG Export Plug-In . SVG Version: 6.00 Build 0)  -->
<svg version="1.1" id="Layer_1" xmlns="http://www.w3.org/2000/svg" xmlns:xlink="http://www.w3.org/1999/xlink" x="0px" y="0px"
	 viewBox="0 0 512 512" style="enable-background:new 0 0 512 512;" xml:space="preserve">
<g>
	<g>
		<path d="M454.93,150.318L454.93,150.318c16.294,0,29.551-13.257,29.551-29.551V29.564C484.481,13.262,471.224,0,454.93,0H57.07
			C40.776,0,27.519,13.262,27.519,29.564v91.203c0,16.294,13.257,29.551,29.551,29.551h186.307v30.523H57.07
			c-16.294,0-29.551,13.262-29.551,29.564v91.191c0,16.302,13.257,29.564,29.551,29.564h186.307v30.523H57.07
			c-16.294,0-29.551,13.257-29.551,29.551v91.203C27.519,498.738,40.776,512,57.07,512h397.86c16.294,0,29.551-13.262,29.551-29.564
			v-91.203c0-16.294-13.257-29.551-29.551-29.551H268.623v-30.523H454.93c16.294,0,29.551-13.262,29.551-29.564v-91.191
			c0-16.302-13.257-29.564-29.551-29.564H268.623v-30.523H454.93z M454.93,386.929c2.373,0,4.305,1.93,4.305,4.305v91.203
			c0,2.381-1.931,4.317-4.305,4.317H57.07c-2.373,0-4.305-1.936-4.305-4.317v-91.203c0-2.374,1.931-4.305,4.305-4.305H454.93z
			 M454.93,206.088c2.373,0,4.305,1.936,4.305,4.317v91.191c0,2.381-1.931,4.317-4.305,4.317H57.07
			c-2.373,0-4.305-1.936-4.305-4.317v-91.191c0-2.381,1.931-4.317,4.305-4.317H454.93z M57.07,125.071
			c-2.373,0-4.305-1.93-4.305-4.305V29.564c0-2.381,1.931-4.317,4.305-4.317h397.86c2.373,0,4.305,1.936,4.305,4.317v91.203
			c0,2.374-1.931,4.305-4.305,4.305H57.07z"/>
	</g>
</g>
<g>
	<g>
		<path d="M404.904,39.814c-19.489,0-35.345,15.856-35.345,35.345s15.855,35.345,35.345,35.345
			c19.489,0,35.345-15.856,35.345-35.345S424.393,39.814,404.904,39.814z M404.904,85.258c-5.568,0-10.099-4.53-10.099-10.099
			s4.53-10.099,10.099-10.099c5.568,0,10.099,4.531,10.099,10.099S410.472,85.258,404.904,85.258z"/>
	</g>
</g>
<g>
	<g>
		<path d="M338.417,62.536h-17.673c-6.971,0-12.623,5.653-12.623,12.623c0,6.971,5.651,12.623,12.623,12.623h17.673
			c6.971,0,12.623-5.653,12.623-12.623S345.388,62.536,338.417,62.536z"/>
	</g>
</g>
<g>
	<g>
		<path d="M279.934,62.536h-17.673c-6.971,0-12.623,5.653-12.623,12.623c0,6.971,5.653,12.623,12.623,12.623h17.673
			c6.971,0,12.623-5.653,12.623-12.623S286.904,62.536,279.934,62.536z"/>
	</g>
</g>
<g>
	<g>
		<path d="M221.438,62.536H84.374c-6.971,0-12.623,5.653-12.623,12.623c0,6.971,5.653,12.623,12.623,12.623h137.064
			c6.971,0,12.623-5.653,12.623-12.623S228.408,62.536,221.438,62.536z"/>
	</g>
</g>
<g>
	<g>
		<path d="M404.904,220.655c-19.489,0-35.345,15.856-35.345,35.345s15.855,35.345,35.345,35.345
			c19.489,0,35.345-15.856,35.345-35.345S424.393,220.655,404.904,220.655z M404.904,266.099c-5.568,0-10.099-4.531-10.099-10.099
			s4.53-10.099,10.099-10.099c5.568,0,10.099,4.531,10.099,10.099S410.472,266.099,404.904,266.099z"/>
	</g>
</g>
<g>
	<g>
		<path d="M338.417,243.377h-17.673c-6.971,0-12.623,5.653-12.623,12.623s5.651,12.623,12.623,12.623h17.673
			c6.971,0,12.623-5.653,12.623-12.623S345.388,243.377,338.417,243.377z"/>
	</g>
</g>
<g>
	<g>
		<path d="M279.934,243.377h-17.673c-6.972,0-12.623,5.651-12.623,12.623c0,6.971,5.653,12.623,12.623,12.623h17.673
			c6.971,0,12.623-5.653,12.623-12.623S286.904,243.377,279.934,243.377z"/>
	</g>
</g>
<g>
	<g>
		<path d="M221.438,243.377H84.374c-6.971,0-12.623,5.653-12.623,12.623s5.653,12.623,12.623,12.623h137.064
			c6.971,0,12.623-5.653,12.623-12.623S228.408,243.377,221.438,243.377z"/>
	</g>
</g>
<g>
	<g>
		<path d="M404.904,401.496c-19.489,0-35.345,15.856-35.345,35.345c0,19.489,15.855,35.345,35.345,35.345
			c19.489,0,35.345-15.856,35.345-35.345C440.249,417.352,424.393,401.496,404.904,401.496z M404.904,446.94
			c-5.568,0-10.099-4.53-10.099-10.099c0-5.568,4.53-10.099,10.099-10.099c5.568,0,10.099,4.53,10.099,10.099
			C415.003,442.409,410.472,446.94,404.904,446.94z"/>
	</g>
</g>
<g>
	<g>
		<path d="M338.417,424.218h-17.673c-6.971,0-12.623,5.653-12.623,12.623s5.651,12.623,12.623,12.623h17.673
			c6.971,0,12.623-5.653,12.623-12.623S345.388,424.218,338.417,424.218z"/>
	</g>
</g>
<g>
	<g>
		<path d="M279.934,424.218h-17.673c-6.972,0-12.623,5.651-12.623,12.623c0,6.971,5.653,12.623,12.623,12.623h17.673
			c6.971,0,12.623-5.653,12.623-12.623S286.904,424.218,279.934,424.218z"/>
	</g>
</g>
<g>
	<g>
		<path d="M221.438,424.218H84.374c-6.971,0-12.623,5.653-12.623,12.623s5.653,12.623,12.623,12.623h137.064
			c6.971,0,12.623-5.653,12.623-12.623S228.408,424.218,221.438,424.218z"/>
	</g>
</g>
<g>
</g>
<g>
</g>
<g>
</g>
<g>
</g>
<g>
</g>
<g>
</g>
<g>
</g>
<g>
</g>
<g>
</g>
<g>
</g>
<g>
</g>
<g>
</g>
<g>
</g>
<g>
</g>
<g>
</g>
</svg>
